<?xml version="1.0" encoding="utf-8"?>
<!-- Generator: Adobe Illustrator 23.0.5, SVG Export Plug-In . SVG Version: 6.00 Build 0)  -->
<svg version="1.1" id="Layer_1" xmlns="http://www.w3.org/2000/svg" xmlns:xlink="http://www.w3.org/1999/xlink" x="0px" y="0px"
	 viewBox="0 0 560 288" style="enable-background:new 0 0 560 288;" xml:space="preserve">
<style type="text/css">
	.st0{fill:#F0F0F0;}
</style>
<g>
	<circle class="st0" cx="103.19" cy="103.93" r="9.4"/>
	<circle class="st0" cx="116.1" cy="103.93" r="9.4"/>
	<circle class="st0" cx="129.01" cy="103.93" r="9.4"/>
	<circle class="st0" cx="141.92" cy="103.93" r="9.4"/>
	<circle class="st0" cx="154.83" cy="103.93" r="9.4"/>
	<circle class="st0" cx="167.74" cy="103.93" r="9.4"/>
	<circle class="st0" cx="180.65" cy="103.93" r="9.4"/>
	<circle class="st0" cx="193.56" cy="103.93" r="9.4"/>
	<circle class="st0" cx="206.47" cy="103.93" r="9.4"/>
	<circle class="st0" cx="219.38" cy="103.93" r="9.4"/>
	<circle class="st0" cx="232.29" cy="103.93" r="9.4"/>
	<circle class="st0" cx="245.2" cy="103.93" r="9.4"/>
	<circle class="st0" cx="258.11" cy="103.93" r="9.4"/>
	<circle class="st0" cx="271.02" cy="103.93" r="9.4"/>
	<circle class="st0" cx="283.93" cy="103.93" r="9.4"/>
	<circle class="st0" cx="296.84" cy="103.93" r="9.4"/>
	<circle class="st0" cx="309.75" cy="103.93" r="9.4"/>
	<circle class="st0" cx="322.66" cy="103.93" r="9.4"/>
	<circle class="st0" cx="335.56" cy="103.93" r="9.4"/>
	<circle class="st0" cx="348.47" cy="103.93" r="9.4"/>
	<circle class="st0" cx="361.38" cy="103.93" r="9.4"/>
	<circle class="st0" cx="374.29" cy="103.93" r="9.4"/>
</g>
</svg>
