<?xml version="1.0" encoding="utf-8"?>
<!-- Generator: Adobe Illustrator 16.0.0, SVG Export Plug-In . SVG Version: 6.00 Build 0)  -->
<!DOCTYPE svg PUBLIC "-//W3C//DTD SVG 1.1//EN" "http://www.w3.org/Graphics/SVG/1.1/DTD/svg11.dtd">
<svg version="1.1" id="Layer_1" xmlns="http://www.w3.org/2000/svg" xmlns:xlink="http://www.w3.org/1999/xlink" x="0px" y="0px"
	 width="283.46px" height="283.46px" viewBox="0 0 283.46 283.46" style="enable-background:new 0 0 283.46 283.46;"
	 xml:space="preserve">
<g>
	<g>
		<g>
			<g>
				<path style="fill:#F27821;" d="M20.366,207.1c-1.724,0-3.477-0.34-5.167-1.052c-6.753-2.857-9.914-10.646-7.057-17.401
					l30.75-72.711c1.999-4.728,6.539-7.877,11.665-8.095c5.114-0.239,9.917,2.535,12.311,7.069l25.297,47.942l19.838-46.905
					c2.855-6.754,10.641-9.922,17.402-7.059c6.755,2.857,9.914,10.648,7.059,17.402L101.72,198.99
					c-1.999,4.723-6.54,7.874-11.664,8.095c-5.129,0.226-9.918-2.533-12.312-7.072l-25.296-47.944L32.605,198.99
					C30.46,204.056,25.543,207.1,20.366,207.1z"/>
			</g>
			<g>
				<path style="fill:#F27821;" d="M225.411,207.1c-5.177,0-10.094-3.044-12.236-8.109l-19.844-46.922l-25.298,47.944
					c-2.289,4.345-6.788,7.064-11.698,7.084c-0.014,0-0.032,0-0.045,0c-4.892,0-9.389-2.688-11.703-7.003l-15.745-29.351
					c-3.467-6.462-1.041-14.514,5.423-17.981c6.463-3.463,14.515-1.039,17.98,5.424l3.949,7.361l26.718-50.638
					c2.394-4.534,7.168-7.315,12.311-7.069c5.125,0.218,9.666,3.368,11.664,8.095l30.75,72.711
					c2.857,6.755-0.305,14.544-7.057,17.401C228.889,206.76,227.138,207.1,225.411,207.1z"/>
			</g>
			<g>
				<path style="fill:#F27821;" d="M144.89,88.421c0,6.668-5.405,12.069-12.067,12.069c-6.667,0-12.066-5.401-12.066-12.069
					c0-6.66,5.399-12.061,12.066-12.061C139.485,76.36,144.89,81.761,144.89,88.421z"/>
			</g>
		</g>
	</g>
	<g>
		<path style="fill:#F27821;" d="M276.37,195.028c0,6.668-5.404,12.071-12.065,12.071c-6.667,0-12.067-5.403-12.067-12.071
			c0-6.658,5.4-12.059,12.067-12.059C270.966,182.97,276.37,188.37,276.37,195.028z"/>
	</g>
</g>
</svg>
