<svg id="id-card" xmlns="http://www.w3.org/2000/svg" viewBox="0 0 84.035 60.853">
  <defs>
    <style>
      .cls-1 {
        fill: #e7eced;
      }

      .cls-2 {
        fill: #eb1761;
        opacity: 0.48;
      }

      .cls-3 {
        fill: #afb6bb;
      }
    </style>
  </defs>
  <path id="Path_800" data-name="Path 800" class="cls-1" d="M79.374,68.853H4.661A4.66,4.66,0,0,1,0,64.192V12.661A4.66,4.66,0,0,1,4.661,8H79.374a4.66,4.66,0,0,1,4.661,4.661V64.192A4.66,4.66,0,0,1,79.374,68.853Z" transform="translate(0 -8)"/>
  <path id="Path_801" data-name="Path 801" class="cls-2" d="M28.451,45.186,22.994,42.4a1.114,1.114,0,0,1-.607-.991V39.736a9.169,9.169,0,0,0,5.194-6.484,2.9,2.9,0,0,0,2.05-2.756V29.048a2.894,2.894,0,0,0-1.562-2.554c-.639-5.449-4.241-7.654-10.029-7.654-.274,0-.543.01-.807.032a8.7,8.7,0,0,1-5.6-1.317A7.259,7.259,0,0,1,9.981,16.1a.289.289,0,0,0-.517.21c.058.507.145,1.1.272,1.744.478,2.405.193,2.055-.737,4.323A14.966,14.966,0,0,0,8,26.5a2.9,2.9,0,0,0-1.55,2.551V30.5A2.9,2.9,0,0,0,8.5,33.253a9.168,9.168,0,0,0,5.194,6.484V41.4a1.114,1.114,0,0,1-.622,1L7.478,45.149A4.753,4.753,0,0,0,5,49.322v1.92c0,1.637,5.838,2.437,13.04,2.437s13.04-.8,13.04-2.437v-1.8A4.755,4.755,0,0,0,28.451,45.186Z" transform="translate(2.244 -4.417)"/>
  <g id="Group_890" data-name="Group 890" transform="translate(40.568 17.386)">
    <path id="Path_802" data-name="Path 802" class="cls-3" d="M29.449,22.9H43.938a1.449,1.449,0,0,0,0-2.9H29.449a1.449,1.449,0,1,0,0,2.9Z" transform="translate(-28 -20)"/>
    <path id="Path_803" data-name="Path 803" class="cls-3" d="M43.449,22.9H44.9a1.449,1.449,0,0,0,0-2.9H43.449a1.449,1.449,0,0,0,0,2.9Z" transform="translate(-21.716 -20)"/>
    <path id="Path_804" data-name="Path 804" class="cls-3" d="M30.9,37H29.449a1.449,1.449,0,1,0,0,2.9H30.9a1.449,1.449,0,0,0,0-2.9Z" transform="translate(-28 -12.369)"/>
    <path id="Path_805" data-name="Path 805" class="cls-3" d="M37.347,37h-2.9a1.449,1.449,0,0,0,0,2.9h2.9a1.449,1.449,0,0,0,0-2.9Z" transform="translate(-25.756 -12.369)"/>
    <path id="Path_806" data-name="Path 806" class="cls-3" d="M41.9,37H40.449a1.449,1.449,0,0,0,0,2.9H41.9a1.449,1.449,0,1,0,0-2.9Z" transform="translate(-23.062 -12.369)"/>
    <path id="Path_807" data-name="Path 807" class="cls-3" d="M48.347,37h-2.9a1.449,1.449,0,1,0,0,2.9h2.9a1.449,1.449,0,1,0,0-2.9Z" transform="translate(-20.818 -12.369)"/>
    <path id="Path_808" data-name="Path 808" class="cls-3" d="M50.42,37.415a1.449,1.449,0,1,0,2.057,0A1.514,1.514,0,0,0,50.42,37.415Z" transform="translate(-18.125 -12.364)"/>
    <path id="Path_809" data-name="Path 809" class="cls-3" d="M29.449,28.9H61.324a1.449,1.449,0,0,0,0-2.9H29.449a1.449,1.449,0,1,0,0,2.9Z" transform="translate(-28 -17.307)"/>
    <path id="Path_810" data-name="Path 810" class="cls-3" d="M61.324,32H29.449a1.449,1.449,0,1,0,0,2.9H61.324a1.449,1.449,0,0,0,0-2.9Z" transform="translate(-28 -14.613)"/>
  </g>
</svg>
