<svg xmlns="http://www.w3.org/2000/svg" viewBox="0 0 25.122 18.682">
  <defs>
    <style>
      .cls-1 {
        fill: #fff;
      }
    </style>
  </defs>
  <g id="logout" transform="translate(0 -42.299)">
    <path id="XMLID_4_" class="cls-1" d="M3.9,110.71h13.23a1.142,1.142,0,0,0,0-2.284H3.9l1.476-1.476a1.142,1.142,0,0,0-1.615-1.615L.335,108.76c-.026.026-.051.054-.075.083l-.016.022c-.017.022-.035.044-.05.068l-.013.021c-.016.025-.031.049-.045.075l-.008.016c-.014.028-.028.056-.04.085l0,.011c-.012.031-.024.062-.034.094,0,0,0,.008,0,.012-.009.031-.018.063-.024.1,0,.01,0,.02,0,.029,0,.027-.009.054-.012.081a1.126,1.126,0,0,0,0,.228c0,.028.008.055.012.082,0,.009,0,.019,0,.028.007.033.015.065.024.1l0,.011c.01.032.021.064.034.095l0,.01c.012.029.026.058.041.086l.007.015c.014.026.029.051.045.076l.012.02c.016.024.033.046.05.068l.016.022c.024.029.049.057.075.083L3.76,113.8a1.142,1.142,0,1,0,1.615-1.615Z" transform="translate(0 -57.928)"/>
    <path id="XMLID_5_" class="cls-1" d="M110.8,42.3a9.334,9.334,0,0,0-7.758,4.136,1.142,1.142,0,0,0,1.9,1.274,7.057,7.057,0,1,1,.01,7.876,1.142,1.142,0,0,0-1.892,1.278A9.341,9.341,0,1,0,110.8,42.3Z" transform="translate(-95.016)"/>
  </g>
</svg>
