<svg xmlns="http://www.w3.org/2000/svg" viewBox="0 0 19.158 19.159">
  <defs>
    <style>
      .cls-1 {
        fill-rule: evenodd;
      }
    </style>
  </defs>
  <g id="settings-work-tool" transform="translate(-0.003 0)">
    <g id="Group_857" data-name="Group 857" transform="translate(0.003 0)">
      <path id="Path_749" data-name="Path 749" class="cls-1" d="M19.1,8.516a.624.624,0,0,0-.616-.472,2.115,2.115,0,0,1-1.448-3.682A.532.532,0,0,0,17.1,3.64a9.479,9.479,0,0,0-1.518-1.533.533.533,0,0,0-.728.059,2.208,2.208,0,0,1-2.389.537A2.128,2.128,0,0,1,11.167.623a.531.531,0,0,0-.47-.56A9.564,9.564,0,0,0,8.542.058a.533.533,0,0,0-.474.548A2.131,2.131,0,0,1,6.756,2.65a2.214,2.214,0,0,1-2.371-.54.534.534,0,0,0-.723-.061,9.515,9.515,0,0,0-1.55,1.532.533.533,0,0,0,.057.728A2.123,2.123,0,0,1,2.7,6.7,2.215,2.215,0,0,1,.62,7.995a.521.521,0,0,0-.553.47,9.6,9.6,0,0,0,0,2.179.634.634,0,0,0,.628.471,2.1,2.1,0,0,1,1.971,1.313A2.13,2.13,0,0,1,2.126,14.8a.532.532,0,0,0-.058.722,9.514,9.514,0,0,0,1.515,1.533.533.533,0,0,0,.729-.058A2.2,2.2,0,0,1,6.7,16.456,2.124,2.124,0,0,1,8,18.535a.532.532,0,0,0,.47.56,9.534,9.534,0,0,0,2.155.006.533.533,0,0,0,.474-.549,2.129,2.129,0,0,1,1.311-2.043,2.211,2.211,0,0,1,2.372.54.535.535,0,0,0,.723.06,9.537,9.537,0,0,0,1.55-1.532.532.532,0,0,0-.057-.728,2.123,2.123,0,0,1-.537-2.39,2.145,2.145,0,0,1,1.96-1.3l.118,0a.533.533,0,0,0,.561-.47A9.588,9.588,0,0,0,19.1,8.516ZM9.6,12.8a3.2,3.2,0,1,1,3.2-3.2A3.2,3.2,0,0,1,9.6,12.8Z" transform="translate(-0.003 0)"/>
    </g>
  </g>
</svg>
