<svg xmlns="http://www.w3.org/2000/svg" viewBox="0 0 69.108 66.046">
  <defs>
    <style>
      .cls-1 {
        opacity: 0.35;
      }

      .cls-2 {
        fill: #eb1761;
      }
    </style>
  </defs>
  <g id="icon_3_" data-name="icon (3)" class="cls-1" transform="translate(0 -0.567)">
    <path id="Path_843" data-name="Path 843" class="cls-2" d="M50.57,25.782l10.412,3.824L52.323,53.182c-.81,2.217-5.2,9.156-8.265,10.571l-.743,2.026a1.274,1.274,0,0,1-1.191.835,1.313,1.313,0,0,1-.438-.078,1.271,1.271,0,0,1-.754-1.631l.7-1.915c-1.553-3.017-.394-11.778.286-13.631ZM65.638.837c-2.863-1.048-6.215,1.118-7.173,3.735L52.194,21.658,62.6,25.477,68.866,8.394C69.655,6.255,68.507,1.887,65.638.837ZM46.8,24.9a2.537,2.537,0,0,0,3.265-1.5L56.682,5.552a2.54,2.54,0,0,0-4.764-1.764L45.3,21.636A2.536,2.536,0,0,0,46.8,24.9ZM36.148,58.365A9.873,9.873,0,0,0,33.236,56.3a7.6,7.6,0,0,0-3.047-.548c-.084,0-.181,0-.278-.005a3.947,3.947,0,0,0-3.065-2.593,6.2,6.2,0,0,0-4.783,1.269c.1-.567.265-1.242.386-1.729a11.137,11.137,0,0,0,.492-4.7,2.708,2.708,0,0,0-2.469-2.177c-3.146-.176-5.718,1.518-7.984,3.049-2.379,1.607-3.905,2.566-5.423,2.023-1.853-.659-2.039-5.674-1.148-10.142C6.714,36.72,8.2,29.228,12,25.825c1.28-1.145,3.133-2.385,4.656-1.783,1.791.7,3.271,3.652,3.6,7.165a2.7,2.7,0,1,0,5.377-.505c-.535-5.726-3.219-10.2-7-11.692-2.266-.88-5.869-1.118-10.236,2.79C3.641,26.055,1.885,33.268.613,39.694-.024,42.9-1.577,53.549,5.25,55.977c4.159,1.483,7.538-.8,10.252-2.636.5-.335.986-.664,1.461-.959-.451,1.958-.732,4.054.451,5.82,1.764,2.652,4.257,2.941,7.406.867.122-.078.262-.17.394-.262A3.666,3.666,0,0,0,26.96,60.55a7.141,7.141,0,0,0,3.1.6,4.287,4.287,0,0,1,.983.084,4.69,4.69,0,0,1,1.391,1.051,17.184,17.184,0,0,0,1.485,1.286A2.7,2.7,0,0,0,37.15,59.25,12.759,12.759,0,0,1,36.148,58.365Z" transform="translate(0 0)"/>
  </g>
</svg>
