<?xml version="1.0" encoding="utf-8"?>
<!-- Generator: Adobe Illustrator 19.0.0, SVG Export Plug-In . SVG Version: 6.00 Build 0)  -->
<svg version="1.1" id="Layer_1" xmlns="http://www.w3.org/2000/svg" xmlns:xlink="http://www.w3.org/1999/xlink" x="0px" y="0px"
	 viewBox="79 -202.7 1000 1000" style="enable-background:new 79 -202.7 1000 1000;" xml:space="preserve">
<style type="text/css">
	.st0{fill:#FFFFFF;}
</style>
<g>
	<path class="st0" d="M997.7-64.3H160.3C120.9-64.3,89-31.9,89,8v578.5c0,40,31.9,72.3,71.3,72.3h837.5c39.4,0,71.3-32.4,71.3-72.3
		V8C1069-31.9,1037.1-64.3,997.7-64.3L997.7-64.3z M979.9,514.2c0,30-23.9,54.2-53.5,54.2H231.5c-29.5,0-53.5-24.3-53.5-54.2V80.3
		c0-30,23.9-54.2,53.5-54.2h694.9c29.5,0,53.5,24.3,53.5,54.2V514.2L979.9,514.2z"/>
	<path class="st0" d="M365.2,306.3c59.1,0,106.9-48.6,106.9-108.5S424.2,89.3,365.2,89.3s-106.9,48.6-106.9,108.5
		C258.3,257.8,306.1,306.3,365.2,306.3L365.2,306.3z"/>
	<path class="st0" d="M899.7,405.8H614.6c-19.7,0-35.6,16.2-35.6,36.2s15.9,36.2,35.6,36.2h285.1c19.7,0,35.6-16.2,35.6-36.2
		C935.4,422,919.4,405.8,899.7,405.8L899.7,405.8z"/>
	<path class="st0" d="M454.3,333.5H276.1c-29.5,0-53.5,24.3-53.5,54.2v117.5h285.1V387.7C507.7,357.7,483.8,333.5,454.3,333.5
		L454.3,333.5z"/>
	<path class="st0" d="M899.7,261.1H614.6c-19.6,0-35.6,16.2-35.6,36.2s15.9,36.2,35.6,36.2h285.1c19.7,0,35.6-16.2,35.6-36.2
		C935.4,277.3,919.4,261.1,899.7,261.1L899.7,261.1z"/>
	<path class="st0" d="M899.7,116.5H614.6c-19.7,0-35.6,16.2-35.6,36.2s15.9,36.2,35.6,36.2h285.1c19.7,0,35.6-16.2,35.6-36.2
		C935.4,132.7,919.4,116.5,899.7,116.5L899.7,116.5z"/>
</g>
</svg>
