<svg id="credit-card_2_" data-name="credit-card (2)" xmlns="http://www.w3.org/2000/svg" viewBox="0 0 70.645 62.147">
  <defs>
    <style>
      .cls-1 {
        fill: none;
      }

      .cls-2 {
        fill: #dbe1eb;
      }

      .cls-3 {
        fill: #0a0a0a;
      }
    </style>
  </defs>
  <g id="Group_671" data-name="Group 671" transform="translate(0 0)">
    <path id="Path_729" data-name="Path 729" class="cls-1" d="M62.269,148.353v5.493H118.1v-5.493a2.268,2.268,0,0,0-2.266-2.266h-51.3A2.268,2.268,0,0,0,62.269,148.353Z" transform="translate(-51.575 -125.247)"/>
    <path id="Path_730" data-name="Path 730" class="cls-1" d="M81.1,61.339l-2.529-10.8c0-.008,0-.015-.005-.023a2.269,2.269,0,0,0-2.7-1.721L25.781,59.914a2.269,2.269,0,0,0-1.721,2.7l2.4,10.892V67.727a6.4,6.4,0,0,1,6.388-6.387H81.1Z" transform="translate(-19.883 -44.621)"/>
    <path id="Path_731" data-name="Path 731" class="cls-1" d="M62.269,272.676v7.938a2.269,2.269,0,0,0,2.266,2.266h51.3a2.269,2.269,0,0,0,2.266-2.266V266.348H62.269Z" transform="translate(-51.575 -224.854)"/>
    <rect id="Rectangle_317" data-name="Rectangle 317" class="cls-2" width="55.829" height="4.651" transform="translate(10.694 32.721)"/>
    <path id="Path_732" data-name="Path 732" class="cls-3" d="M65.475,41.575,62.7,29.73a6.4,6.4,0,0,0-7.617-4.838L5,36.009A6.4,6.4,0,0,0,.152,43.625l6.42,29.191V80.5a6.4,6.4,0,0,0,6.388,6.387h51.3A6.4,6.4,0,0,0,70.645,80.5V47.845A6.4,6.4,0,0,0,65.475,41.575Zm-1.218,4a2.269,2.269,0,0,1,2.266,2.266v5.493H10.694V47.845a2.268,2.268,0,0,1,2.266-2.266Zm2.266,16.532H10.694V57.46H66.523ZM6.573,47.845v5.783l-2.4-10.892a2.269,2.269,0,0,1,1.721-2.7L55.976,28.916a2.269,2.269,0,0,1,2.7,1.721l.005.023,2.529,10.8H12.96A6.4,6.4,0,0,0,6.573,47.845ZM66.523,80.5a2.269,2.269,0,0,1-2.266,2.266H12.96A2.269,2.269,0,0,1,10.694,80.5V66.233H66.523Z" transform="translate(0 -24.739)"/>
  </g>
</svg>
