<svg xmlns="http://www.w3.org/2000/svg" viewBox="0 0 12.267 16.727">
  <defs>
    <style>
      .cls-1 {
        fill: #fff;
      }
    </style>
  </defs>
  <path id="country" class="cls-1" d="M20.091.877A8.983,8.983,0,0,0,17.076.32,5.317,5.317,0,0,0,14.56.89a5.473,5.473,0,0,1-2.544.5A14.9,14.9,0,0,1,8.558.922V.279A.279.279,0,0,0,8,.279v.836s0,.007,0,.011,0,.006,0,.009V16.449a.279.279,0,0,0,.558,0V9.862a15.176,15.176,0,0,0,3.459.454,6.014,6.014,0,0,0,2.805-.569,4.767,4.767,0,0,1,2.255-.5,8.571,8.571,0,0,1,2.808.517.279.279,0,0,0,.382-.259V1.136A.279.279,0,0,0,20.091.877Z" transform="translate(-8)"/>
</svg>
