<svg id="calendar" xmlns="http://www.w3.org/2000/svg" viewBox="0 0 16 16">
  <defs>
    <style>
      .cls-1 {
        fill: #fff;
      }
    </style>
  </defs>
  <g id="Group_893" data-name="Group 893">
    <g id="Group_892" data-name="Group 892">
      <path id="Path_821" data-name="Path 821" class="cls-1" d="M14.125,1.25h-.75V0h-1.25V1.25H3.875V0H2.625V1.25h-.75A1.877,1.877,0,0,0,0,3.125v11A1.877,1.877,0,0,0,1.875,16h12.25A1.877,1.877,0,0,0,16,14.125v-11A1.877,1.877,0,0,0,14.125,1.25Zm.625,12.875a.626.626,0,0,1-.625.625H1.875a.626.626,0,0,1-.625-.625V5.875h13.5Zm0-9.5H1.25v-1.5A.626.626,0,0,1,1.875,2.5h.75V3.75h1.25V2.5h8.25V3.75h1.25V2.5h.75a.626.626,0,0,1,.625.625Z"/>
    </g>
  </g>
  <g id="Group_895" data-name="Group 895" transform="translate(2.375 7.188)">
    <g id="Group_894" data-name="Group 894">
      <rect id="Rectangle_542" data-name="Rectangle 542" class="cls-1" width="1.25" height="1.25"/>
    </g>
  </g>
  <g id="Group_897" data-name="Group 897" transform="translate(4.875 7.188)">
    <g id="Group_896" data-name="Group 896">
      <rect id="Rectangle_543" data-name="Rectangle 543" class="cls-1" width="1.25" height="1.25"/>
    </g>
  </g>
  <g id="Group_899" data-name="Group 899" transform="translate(7.375 7.188)">
    <g id="Group_898" data-name="Group 898">
      <rect id="Rectangle_544" data-name="Rectangle 544" class="cls-1" width="1.25" height="1.25"/>
    </g>
  </g>
  <g id="Group_901" data-name="Group 901" transform="translate(9.875 7.188)">
    <g id="Group_900" data-name="Group 900">
      <rect id="Rectangle_545" data-name="Rectangle 545" class="cls-1" width="1.25" height="1.25"/>
    </g>
  </g>
  <g id="Group_903" data-name="Group 903" transform="translate(12.375 7.188)">
    <g id="Group_902" data-name="Group 902">
      <rect id="Rectangle_546" data-name="Rectangle 546" class="cls-1" width="1.25" height="1.25"/>
    </g>
  </g>
  <g id="Group_905" data-name="Group 905" transform="translate(2.375 9.688)">
    <g id="Group_904" data-name="Group 904">
      <rect id="Rectangle_547" data-name="Rectangle 547" class="cls-1" width="1.25" height="1.25"/>
    </g>
  </g>
  <g id="Group_907" data-name="Group 907" transform="translate(4.875 9.688)">
    <g id="Group_906" data-name="Group 906">
      <rect id="Rectangle_548" data-name="Rectangle 548" class="cls-1" width="1.25" height="1.25"/>
    </g>
  </g>
  <g id="Group_909" data-name="Group 909" transform="translate(7.375 9.688)">
    <g id="Group_908" data-name="Group 908">
      <rect id="Rectangle_549" data-name="Rectangle 549" class="cls-1" width="1.25" height="1.25"/>
    </g>
  </g>
  <g id="Group_911" data-name="Group 911" transform="translate(9.875 9.688)">
    <g id="Group_910" data-name="Group 910">
      <rect id="Rectangle_550" data-name="Rectangle 550" class="cls-1" width="1.25" height="1.25"/>
    </g>
  </g>
  <g id="Group_913" data-name="Group 913" transform="translate(2.375 12.188)">
    <g id="Group_912" data-name="Group 912">
      <rect id="Rectangle_551" data-name="Rectangle 551" class="cls-1" width="1.25" height="1.25"/>
    </g>
  </g>
  <g id="Group_915" data-name="Group 915" transform="translate(4.875 12.188)">
    <g id="Group_914" data-name="Group 914">
      <rect id="Rectangle_552" data-name="Rectangle 552" class="cls-1" width="1.25" height="1.25"/>
    </g>
  </g>
  <g id="Group_917" data-name="Group 917" transform="translate(7.375 12.188)">
    <g id="Group_916" data-name="Group 916">
      <rect id="Rectangle_553" data-name="Rectangle 553" class="cls-1" width="1.25" height="1.25"/>
    </g>
  </g>
  <g id="Group_919" data-name="Group 919" transform="translate(9.875 12.188)">
    <g id="Group_918" data-name="Group 918">
      <rect id="Rectangle_554" data-name="Rectangle 554" class="cls-1" width="1.25" height="1.25"/>
    </g>
  </g>
  <g id="Group_921" data-name="Group 921" transform="translate(12.375 9.688)">
    <g id="Group_920" data-name="Group 920">
      <rect id="Rectangle_555" data-name="Rectangle 555" class="cls-1" width="1.25" height="1.25"/>
    </g>
  </g>
</svg>
