<svg xmlns="http://www.w3.org/2000/svg" viewBox="0 0 16.28 16">
  <defs>
    <style>
      .cls-1 {
        fill: #fff;
      }
    </style>
  </defs>
  <g id="calendar_1_" data-name="calendar (1)" transform="translate(0 -0.5)">
    <path id="Path_822" data-name="Path 822" class="cls-1" d="M12.042,1.623A1.406,1.406,0,0,0,10.667.5a.281.281,0,1,0,0,.561.842.842,0,0,1,0,1.684.281.281,0,1,0,0,.561,1.406,1.406,0,0,0,1.375-1.123h3.677V4.149H.561V2.184H5.333a.281.281,0,0,0,0-.561h-.51a.841.841,0,1,1,.79,1.123.281.281,0,0,0,0,.561A1.4,1.4,0,1,0,4.239,1.623H0V16.5H16.281V1.623ZM8.421,4.711h3.368V8.079H8.421Zm3.368,7.3H8.421V8.64h3.368ZM4.491,8.64H7.86v3.368H4.491Zm0-3.93H7.86V8.079H4.491Zm-3.93.281V4.711H3.93V8.079H.561Zm0,3.649H3.93v3.368H.561Zm0,7.3V12.57H3.93v3.368Zm3.93,0V12.57H7.86v3.368Zm3.93,0V12.57h3.368v3.368Zm7.3,0H12.351V12.57h3.368Zm0-3.93H12.351V8.64h3.368Zm-3.368-3.93V4.711h3.368V8.079Z" transform="translate(0 0)"/>
    <path id="Path_823" data-name="Path 823" class="cls-1" d="M25.281,1.061a.842.842,0,0,1,0,1.684.281.281,0,1,0,0,.561,1.4,1.4,0,0,0,0-2.807.281.281,0,1,0,0,.561Z" transform="translate(-17.982 0)"/>
    <path id="Path_824" data-name="Path 824" class="cls-1" d="M31.281,1.061a.842.842,0,0,1,0,1.684.281.281,0,1,0,0,.561,1.4,1.4,0,0,0,0-2.807.281.281,0,1,0,0,.561Z" transform="translate(-22.298 0)"/>
    <path id="Path_825" data-name="Path 825" class="cls-1" d="M31.082,33.225a.281.281,0,0,0,.4,0L32.4,32.3l.924.924a.281.281,0,0,0,.4-.4L32.8,31.9l.924-.924a.281.281,0,0,0-.4-.4l-.924.924-.924-.924a.281.281,0,0,0-.4.4l.924.924-.924.924A.28.28,0,0,0,31.082,33.225Z" transform="translate(-22.298 -21.579)"/>
  </g>
</svg>
