<svg xmlns="http://www.w3.org/2000/svg" viewBox="0 0 60.972 91.838">
  <defs>
    <style>
      .cls-1 {
        opacity: 0.15;
      }

      .cls-2 {
        fill: #050505;
      }

      .cls-3 {
        fill: #0a0a0a;
      }

      .cls-4 {
        fill: #fff;
      }

      .cls-5 {
        fill: #ef427e;
      }
    </style>
  </defs>
  <g id="Group_719" data-name="Group 719" class="cls-1">
    <path id="Path_720" data-name="Path 720" class="cls-2" d="M43.439,0H12.084a4.763,4.763,0,0,0-4.75,4.75V65.577a4.765,4.765,0,0,0,4.75,4.752H43.439a4.762,4.762,0,0,0,4.75-4.75V4.75A4.763,4.763,0,0,0,43.439,0ZM20.783,66.905H16.772a1.337,1.337,0,0,1,0-2.675h4.011a1.337,1.337,0,0,1,0,2.675Zm6.979,1.049a2.376,2.376,0,1,1,2.375-2.377A2.376,2.376,0,0,1,27.762,67.954Zm10.989-1.049H34.744a1.337,1.337,0,1,1,0-2.675h4.007a1.337,1.337,0,0,1,0,2.675Zm6.133-5.367H10.639V3.1H44.884Z" transform="translate(-7.334 21.509)"/>
    <g id="credit-card_1_" data-name="credit-card (1)" transform="translate(27.976 49.493) rotate(-90)">
      <g id="Group_660" data-name="Group 660">
        <g id="Group_659" data-name="Group 659">
          <path id="Path_724" data-name="Path 724" class="cls-3" d="M44.338,0H5.155A5.163,5.163,0,0,0,0,5.156V27.84A5.163,5.163,0,0,0,5.155,33H44.337a5.163,5.163,0,0,0,5.155-5.155V5.156A5.163,5.163,0,0,0,44.338,0Zm3.093,27.84a3.1,3.1,0,0,1-3.093,3.093H5.155A3.1,3.1,0,0,1,2.062,27.84V5.156A3.1,3.1,0,0,1,5.155,2.062H44.337a3.1,3.1,0,0,1,3.093,3.093V27.84Z"/>
        </g>
      </g>
      <g id="Group_662" data-name="Group 662" transform="translate(0 6.187)">
        <g id="Group_661" data-name="Group 661" transform="translate(0 0)">
          <path id="Path_725" data-name="Path 725" class="cls-3" d="M48.462,0H1.031A1.032,1.032,0,0,0,0,1.031V7.218A1.032,1.032,0,0,0,1.031,8.249H48.462a1.032,1.032,0,0,0,1.031-1.031V1.031A1.032,1.032,0,0,0,48.462,0ZM47.431,6.187H2.062V2.062H47.431V6.187Z"/>
        </g>
      </g>
      <g id="Group_664" data-name="Group 664" transform="translate(6.187 20.622)">
        <g id="Group_663" data-name="Group 663" transform="translate(0 0)">
          <path id="Path_726" data-name="Path 726" class="cls-3" d="M13.4,0H1.031a1.031,1.031,0,1,0,0,2.062H13.4A1.031,1.031,0,1,0,13.4,0Z"/>
        </g>
      </g>
      <g id="Group_666" data-name="Group 666" transform="translate(6.187 24.747)">
        <g id="Group_665" data-name="Group 665" transform="translate(0 0)">
          <path id="Path_727" data-name="Path 727" class="cls-3" d="M13.4,0H1.031a1.031,1.031,0,1,0,0,2.062H13.4A1.031,1.031,0,1,0,13.4,0Z"/>
        </g>
      </g>
      <g id="Group_668" data-name="Group 668" transform="translate(35.058 18.56)">
        <g id="Group_667" data-name="Group 667" transform="translate(0 0)">
          <path id="Path_728" data-name="Path 728" class="cls-3" d="M5.155,0H3.093A3.1,3.1,0,0,0,0,3.093V5.155A3.1,3.1,0,0,0,3.093,8.249H5.155A3.1,3.1,0,0,0,8.249,5.155V3.093A3.1,3.1,0,0,0,5.155,0ZM6.187,5.156A1.032,1.032,0,0,1,5.155,6.187H3.093A1.032,1.032,0,0,1,2.062,5.156V3.093A1.032,1.032,0,0,1,3.093,2.062H5.155A1.032,1.032,0,0,1,6.187,3.093Z"/>
        </g>
      </g>
    </g>
    <rect id="Rectangle_316" data-name="Rectangle 316" class="cls-4" width="35.632" height="59.967" transform="translate(2.628 23.953)"/>
    <g id="Group_669" data-name="Group 669" transform="translate(8.112 46.964)">
      <g id="Group_654" data-name="Group 654" transform="translate(0)">
        <path id="Path_721" data-name="Path 721" class="cls-5" d="M36,17.328l-1.78,1.778a14.918,14.918,0,0,0-21.073,0l-1.778-1.778A17.437,17.437,0,0,1,36,17.328Z" transform="translate(-11.371 -12.235)"/>
      </g>
      <g id="Group_655" data-name="Group 655" transform="translate(3.072 4.347)">
        <path id="Path_722" data-name="Path 722" class="cls-5" d="M31.387,18.219,29.6,20a10.565,10.565,0,0,0-14.922,0L12.9,18.219A13.092,13.092,0,0,1,31.387,18.219Z" transform="translate(-12.9 -14.399)"/>
      </g>
      <g id="Group_656" data-name="Group 656" transform="translate(6.247 8.831)">
        <path id="Path_723" data-name="Path 723" class="cls-5" d="M26.617,19.139l-1.778,1.778a6.075,6.075,0,0,0-8.58,0L14.48,19.139A8.593,8.593,0,0,1,26.617,19.139Z" transform="translate(-14.48 -16.63)"/>
      </g>
      <g id="Group_670" data-name="Group 670" transform="translate(9.708 13.582)">
        <path id="Path_723-2" data-name="Path 723" class="cls-5" d="M20.549,17.885l-.889.889a3.037,3.037,0,0,0-4.29,0l-.889-.889A4.3,4.3,0,0,1,20.549,17.885Z" transform="translate(-14.48 -16.63)"/>
      </g>
    </g>
  </g>
</svg>
