<svg xmlns="http://www.w3.org/2000/svg" viewBox="0 0 72.646 72.689">
  <defs>
    <style>
      .cls-1 {
        fill: #101010;
        stroke: #38003c;
      }

      .cls-2 {
        fill: #0f0f0f;
        font-size: 20px;
        font-family: Lato-Bold, Lato;
        font-weight: 700;
      }

      .cls-3 {
        font-family: SegoeUI-Bold, Segoe UI;
      }
    </style>
  </defs>
  <g id="Group_686" data-name="Group 686" transform="translate(-232.763 -1043.7)">
    <g id="investment" transform="translate(233.263 1044.2)">
      <g id="Group_679" data-name="Group 679" transform="translate(0 0)">
        <g id="Group_678" data-name="Group 678" transform="translate(0 0)">
          <path id="Path_736" data-name="Path 736" class="cls-1" d="M71.627,42.916c0-9.509-3.917-21.944-14.819-26.407V11.745L60.05,9.151a1.235,1.235,0,0,0,.463-.964V1.271A1.235,1.235,0,0,0,59.278.036h-3.7A1.235,1.235,0,0,0,54.7.4l-1.6,1.6L51.506.4a1.235,1.235,0,0,0-.873-.362h-4.94A1.235,1.235,0,0,0,44.82.4l-1.6,1.6L41.627.4a1.235,1.235,0,0,0-.873-.362h-3.7a1.235,1.235,0,0,0-1.235,1.235V8.187a1.235,1.235,0,0,0,.463.964l3.242,2.593v4.764C28.616,20.972,24.7,33.412,24.7,42.916a20.2,20.2,0,0,0,1.025,6.565c-.531-.03-1.066-.047-1.6-.047H20.994A1.235,1.235,0,0,0,19.759,48.2H9.88a1.235,1.235,0,0,0-1.235,1.235H0V51.9H8.645v12.35H0v2.47H8.645A1.235,1.235,0,0,0,9.88,67.958h9.88a1.235,1.235,0,0,0,1.235-1.235v-.471l9.22,3.828a21.365,21.365,0,0,0,15.716.174L65.008,62.98a4.494,4.494,0,0,0,2.523-2.4,4.54,4.54,0,0,0-.8-4.929A17.131,17.131,0,0,0,71.627,42.916Zm-53.1,22.572h-7.41V50.669h7.41ZM38.284,7.594V2.506h1.959L42.35,4.614a1.235,1.235,0,0,0,1.746,0L46.2,2.506h3.917L52.23,4.614a1.235,1.235,0,0,0,1.746,0l2.108-2.108h1.959V7.594l-2.9,2.322H41.184Zm16.054,4.792v3.7H41.988v-3.7ZM65.266,59.58a2.04,2.04,0,0,1-1.144,1.1L45.045,67.95a18.894,18.894,0,0,1-13.9-.149L20.994,63.578V51.9h3.131a26.514,26.514,0,0,1,11.8,2.785,8.739,8.739,0,0,0,3.9.92H49.4a1.852,1.852,0,0,1,.408,3.657c-.162.015-.32.048-.484.048H34.579v2.47H49.4c.025,0,.048-.007.074-.007a7.608,7.608,0,0,0,2.85-.6l10.325-4.383a1.961,1.961,0,0,1,1.54,0,2.039,2.039,0,0,1,1.111,1.15A2.12,2.12,0,0,1,65.266,59.58ZM64.53,54.32a4.4,4.4,0,0,0-2.848.2l-8.007,3.4a4.269,4.269,0,0,0,.046-.454A4.322,4.322,0,0,0,49.4,53.139h-9.58a6.281,6.281,0,0,1-2.792-.659,28.955,28.955,0,0,0-8.51-2.695,16.92,16.92,0,0,1-1.347-6.869C27.169,34.024,30.8,22.353,41,18.56H55.326c10.2,3.793,13.831,15.464,13.831,24.356A14.641,14.641,0,0,1,64.53,54.32Z" transform="translate(0 -0.036)"/>
        </g>
      </g>
      <g id="Group_681" data-name="Group 681" transform="translate(13.584 60.513)">
        <g id="Group_680" data-name="Group 680">
          <rect id="Rectangle_321" data-name="Rectangle 321" class="cls-1" width="2.47" height="2.47"/>
        </g>
      </g>
      <g id="Group_685" data-name="Group 685" transform="translate(34.579 22.229)">
        <g id="Group_684" data-name="Group 684">
          <path id="Path_738" data-name="Path 738" class="cls-1" d="M237.585,144.036a13.584,13.584,0,1,0,13.584,13.584A13.584,13.584,0,0,0,237.585,144.036Zm0,24.7A11.115,11.115,0,1,1,248.7,157.62,11.115,11.115,0,0,1,237.585,168.735Z" transform="translate(-224 -144.036)"/>
        </g>
      </g>
    </g>
    <text id="_" data-name=" ₦" class="cls-2" transform="translate(270.153 1086.082)"><tspan x="0" y="0"> </tspan><tspan class="cls-3" y="0">₦</tspan></text>
  </g>
</svg>
