<svg id="loan" xmlns="http://www.w3.org/2000/svg" viewBox="0 0 84.802 83.383">
  <defs>
    <style>
      .cls-1 {
        fill: #0c0b0c;
      }
    </style>
  </defs>
  <g id="Group_673" data-name="Group 673" transform="translate(20.544 51.685)">
    <g id="Group_672" data-name="Group 672" transform="translate(0 0)">
      <path id="Path_733" data-name="Path 733" class="cls-1" d="M180.517,300.064h-5.588a1.4,1.4,0,0,0-1.4,1.4H159.563a1.391,1.391,0,0,0-.988.409l-7.869,7.869L123,304.921a4.566,4.566,0,0,0-3.083,8.441l30.473,17.776a4.558,4.558,0,0,0,4.343.14l14.934-7.466h3.861a1.4,1.4,0,0,0,1.4,1.4h5.588a1.4,1.4,0,0,0,1.4-1.4v-22.35A1.4,1.4,0,0,0,180.517,300.064Zm-6.985,20.954h-4.191a1.4,1.4,0,0,0-.624.147l-15.23,7.616a1.767,1.767,0,0,1-1.685-.054L121.33,310.95a1.772,1.772,0,0,1,1.2-3.277l25.764,4.481-1.132,1.132a5.348,5.348,0,1,0,7.564,7.561l7.225-7.223-1.975-1.975-7.225,7.225a2.554,2.554,0,0,1-4.36-1.808,2.539,2.539,0,0,1,.747-1.806l11.006-11h13.391Zm5.588,1.4h-2.794V302.858h2.794Z" transform="translate(-117.656 -300.064)"/>
    </g>
  </g>
  <g id="Group_675" data-name="Group 675" transform="translate(41.498 20.954)">
    <g id="Group_674" data-name="Group 674">
      <path id="Path_734" data-name="Path 734" class="cls-1" d="M246.037,124.064a8.381,8.381,0,1,0,8.381,8.381A8.39,8.39,0,0,0,246.037,124.064Zm0,13.969a5.588,5.588,0,1,1,5.588-5.588A5.593,5.593,0,0,1,246.037,138.033Z" transform="translate(-237.656 -124.064)"/>
    </g>
  </g>
  <g id="Group_677" data-name="Group 677" transform="translate(0 0)">
    <g id="Group_676" data-name="Group 676" transform="translate(0 0)">
      <path id="Path_735" data-name="Path 735" class="cls-1" d="M76.42,4.064H23.338a1.4,1.4,0,0,0-1.4,1.4V16.636H10.766a1.391,1.391,0,0,0-.988.409L0,26.824,1.975,28.8l9.369-9.369h10.6v8.381H14.957v2.794h18.16a2.794,2.794,0,0,1,0,5.588H23.338a1.381,1.381,0,0,0-.538.109,1.4,1.4,0,0,0-.451.3L18.16,40.793l1.975,1.975,1.806-1.806v7.8H.988v2.794H76.42a1.4,1.4,0,0,0,1.4-1.4V5.461A1.4,1.4,0,0,0,76.42,4.064ZM24.735,18.033h4.013a5.609,5.609,0,0,1-4.013,4.015Zm0,30.732V44.75a5.609,5.609,0,0,1,4.013,4.015Zm50.289,0H71.01a5.609,5.609,0,0,1,4.013-4.015Zm0-6.859a8.391,8.391,0,0,0-6.859,6.859H31.594a8.391,8.391,0,0,0-6.859-6.859v-2.92h8.381a5.588,5.588,0,0,0,0-11.175H24.735v-2.92a8.391,8.391,0,0,0,6.859-6.859H68.165a8.391,8.391,0,0,0,6.859,6.859Zm0-19.858a5.609,5.609,0,0,1-4.013-4.015h4.013Zm0-6.809H24.735V12.445H75.024Zm0-5.588H24.735V6.858H75.024Z" transform="translate(0 -4.064)"/>
    </g>
  </g>
</svg>
