<svg id="file_1_" data-name="file (1)" xmlns="http://www.w3.org/2000/svg" xmlns:xlink="http://www.w3.org/1999/xlink" viewBox="0 0 47.127 62.836">
  <defs>
    <style>
      .cls-1 {
        fill: #090909;
      }

      .cls-2 {
        fill: #dbe1eb;
      }

      .cls-3, .cls-4 {
        fill: #fff;
      }

      .cls-3 {
        opacity: 0.2;
      }

      .cls-5 {
        fill: #100f10;
      }

      .cls-6 {
        fill: #dfe1df;
      }

      .cls-7 {
        fill: #38003c;
      }

      .cls-8 {
        fill: url(#linear-gradient);
      }

      .cls-9 {
        fill: none;
      }
    </style>
    <linearGradient id="linear-gradient" x1="-3.89" y1="5.63" x2="-3.843" y2="5.583" gradientUnits="objectBoundingBox">
      <stop offset="0" stop-opacity="0.102"/>
      <stop offset="1" stop-opacity="0"/>
    </linearGradient>
  </defs>
  <path id="Path_690" data-name="Path 690" class="cls-1" d="M110.743,13.474,97.652.384A1.308,1.308,0,0,0,96.727,0H69.236A5.241,5.241,0,0,0,64,5.236V57.6a5.241,5.241,0,0,0,5.236,5.236h36.654a5.241,5.241,0,0,0,5.236-5.236V14.4A1.308,1.308,0,0,0,110.743,13.474Z" transform="translate(-64)"/>
  <path id="Path_691" data-name="Path 691" class="cls-2" d="M149.333,21.333h7.854v14.9l-3.342-1.671a1.311,1.311,0,0,0-1.171,0l-3.342,1.671Z" transform="translate(-138.86 -18.715)"/>
  <g id="Group_623" data-name="Group 623" transform="translate(2.618 2.618)">
    <path id="Path_692" data-name="Path 692" class="cls-3" d="M150.642,24.649a2.007,2.007,0,0,1,2.007-2.007h4.538V21.333h-7.854v14.9l1.309-.655Z" transform="translate(-141.479 -21.333)"/>
    <path id="Path_693" data-name="Path 693" class="cls-4" d="M124.606,78.932H87.952a2.622,2.622,0,0,1-2.618-2.618V23.951a2.622,2.622,0,0,1,2.618-2.618H90.57V38.351a1.31,1.31,0,0,0,1.895,1.171L97.116,37.2l4.651,2.325a1.31,1.31,0,0,0,1.895-1.171V21.333h10.472v7.854a5.241,5.241,0,0,0,5.236,5.236h7.854v41.89A2.622,2.622,0,0,1,124.606,78.932Z" transform="translate(-85.334 -21.333)"/>
  </g>
  <g id="Group_624" data-name="Group 624" transform="translate(7.854 28.8)">
    <path id="Path_694" data-name="Path 694" class="cls-5" d="M158.109,234.667h-28.8a1.309,1.309,0,0,0,0,2.618h28.8a1.309,1.309,0,1,0,0-2.618Z" transform="translate(-128 -234.667)"/>
    <path id="Path_695" data-name="Path 695" class="cls-5" d="M158.109,320h-28.8a1.309,1.309,0,0,0,0,2.618h28.8a1.309,1.309,0,1,0,0-2.618Z" transform="translate(-128 -309.527)"/>
    <path id="Path_696" data-name="Path 696" class="cls-5" d="M150.254,405.333H129.309a1.309,1.309,0,0,0,0,2.618h20.945a1.309,1.309,0,1,0,0-2.618Z" transform="translate(-128 -384.388)"/>
  </g>
  <path id="Path_697" data-name="Path 697" class="cls-6" d="M341.333,36.417l8.621,8.622h-6a2.622,2.622,0,0,1-2.618-2.618Z" transform="translate(-307.297 -31.948)"/>
  <path id="Path_698" data-name="Path 698" class="cls-7" d="M343.952,72.868a2.622,2.622,0,0,1-2.618-2.618V72.1a2.622,2.622,0,0,0,2.618,2.618h6L348.1,72.868Z" transform="translate(-307.298 -61.628)"/>
  <path id="Path_699" data-name="Path 699" class="cls-8" d="M336.865,117.567a5.208,5.208,0,0,1-3.609-1.46l11.464,11.464v-10Z" transform="translate(-300.211 -101.858)"/>
  <path id="Path_700" data-name="Path 700" class="cls-9" d="M110.743,13.474,97.652.384A1.308,1.308,0,0,0,96.727,0H69.236A5.241,5.241,0,0,0,64,5.236V57.6a5.241,5.241,0,0,0,5.236,5.236h36.654a5.241,5.241,0,0,0,5.236-5.236V14.4A1.308,1.308,0,0,0,110.743,13.474Z" transform="translate(-64)"/>
</svg>
