<svg xmlns="http://www.w3.org/2000/svg" viewBox="0 0 11.437 19.687">
  <defs>
    <style>
      .cls-1 {
        fill: #fff;
      }
    </style>
  </defs>
  <g id="smartphone" transform="translate(-7.334)">
    <path id="Path_782" data-name="Path 782" class="cls-1" d="M17.441,0H8.664a1.333,1.333,0,0,0-1.33,1.33V18.357a1.334,1.334,0,0,0,1.33,1.33h8.777a1.333,1.333,0,0,0,1.33-1.33V1.33A1.333,1.333,0,0,0,17.441,0ZM11.648.958h2.808a.161.161,0,0,1,0,.322H11.648a.161.161,0,0,1,0-.322Zm1.4,18.064a.665.665,0,1,1,.665-.665A.665.665,0,0,1,13.052,19.022Zm4.793-1.8H8.259V2.109h9.586Z"/>
  </g>
</svg>
