<svg xmlns="http://www.w3.org/2000/svg" viewBox="0 0 19 15.364">
  <defs>
    <style>
      .cls-1 {
        fill: #fff;
      }
    </style>
  </defs>
  <g id="business-card-of-a-man-with-contact-info" transform="translate(0 -3.057)">
    <g id="Group_923" data-name="Group 923" transform="translate(0 3.057)">
      <path id="Path_827" data-name="Path 827" class="cls-1" d="M11.961,14.477H11.5a.434.434,0,0,1-.434-.434.33.33,0,0,1,.1-.236,3.117,3.117,0,0,0,.659-.992.186.186,0,0,0,.109.042c.259,0,.565-.573.565-.964s-.036-.708-.3-.708a.4.4,0,0,0-.1.014c-.018-1.06-.286-2.383-1.9-2.383-1.689,0-1.886,1.32-1.9,2.379a.371.371,0,0,0-.07-.01c-.26,0-.3.317-.3.708s.3.964.565.964a.178.178,0,0,0,.09-.025,3.126,3.126,0,0,0,.651.976.327.327,0,0,1,.1.236.434.434,0,0,1-.434.434H8.437a1.79,1.79,0,0,0-1.79,1.79v.5a.565.565,0,0,0,.565.565h5.974a.565.565,0,0,0,.565-.565v-.5A1.79,1.79,0,0,0,11.961,14.477Z" transform="translate(-2.693 -5.39)"/>
      <path id="Path_828" data-name="Path 828" class="cls-1" d="M21.178,10.077h-5.01a3.683,3.683,0,0,1,.291,1.2.727.727,0,0,1,.253.3h4.466a.418.418,0,0,0,.419-.419V10.5A.419.419,0,0,0,21.178,10.077Z" transform="translate(-6.55 -5.901)"/>
      <path id="Path_829" data-name="Path 829" class="cls-1" d="M21.037,14.678H16.674a1.45,1.45,0,0,1-.814,1.04c-.012.022-.026.041-.038.063v.4h5.215a.419.419,0,0,0,.419-.419V15.1A.417.417,0,0,0,21.037,14.678Z" transform="translate(-6.41 -7.765)"/>
      <path id="Path_830" data-name="Path 830" class="cls-1" d="M22.269,19.279H18.863a2.287,2.287,0,0,1,.357,1.227v.275h3.049a.418.418,0,0,0,.419-.419V19.7A.418.418,0,0,0,22.269,19.279Z" transform="translate(-7.642 -9.629)"/>
      <path id="Path_831" data-name="Path 831" class="cls-1" d="M16.428,3.057H2.573A2.573,2.573,0,0,0,0,5.63V15.848A2.572,2.572,0,0,0,2.573,18.42H16.428A2.572,2.572,0,0,0,19,15.848V5.63A2.572,2.572,0,0,0,16.428,3.057Zm1.358,12.791a1.36,1.36,0,0,1-1.358,1.358H2.573a1.36,1.36,0,0,1-1.358-1.358V5.63A1.36,1.36,0,0,1,2.573,4.272H16.428A1.36,1.36,0,0,1,17.786,5.63Z" transform="translate(0 -3.057)"/>
    </g>
  </g>
</svg>
