<svg xmlns="http://www.w3.org/2000/svg" viewBox="0 0 60 60">
  <defs>
    <style>
      .cls-1 {
        fill: #fff;
      }
    </style>
  </defs>
  <g id="picture" transform="translate(-11 -11)">
    <g id="Group_957" data-name="Group 957" transform="translate(11 11)">
      <g id="Group_956" data-name="Group 956" transform="translate(0 0)">
        <path id="Path_881" data-name="Path 881" class="cls-1" d="M55.767,36.053V13.5a2.493,2.493,0,0,0-2.5-2.5H13.5A2.493,2.493,0,0,0,11,13.5V53.38a2.493,2.493,0,0,0,2.5,2.5H36.176A17.5,17.5,0,1,0,55.767,36.053ZM16,16H50.759V29.147L42.4,21.653a2.487,2.487,0,0,0-3.82.6L30.31,36.384l-2.424-4.2a2.506,2.506,0,0,0-4.261-.11L16.008,43.865V16ZM17.4,50.882l8.18-12.649,7.31,12.649Zm15.771-9.514L41.331,27.42l9.416,8.706A17.563,17.563,0,0,0,36.91,47.833l-3.735-6.465ZM53.49,66a12.542,12.542,0,0,1-12.5-12.551V53.38A12.5,12.5,0,1,1,53.49,66Z" transform="translate(-11 -11)"/>
        <path id="Path_882" data-name="Path 882" class="cls-1" d="M313.557,300.447a2.5,2.5,0,0,0-3.539,0l-2.816,2.816-2.829-2.829a2.5,2.5,0,0,0-3.539,3.539l2.829,2.829-2.829,2.829a2.5,2.5,0,0,0,3.539,3.539l2.829-2.829,2.816,2.816a2.5,2.5,0,0,0,3.539-3.539l-2.816-2.816,2.816-2.816A2.5,2.5,0,0,0,313.557,300.447Z" transform="translate(-264.7 -264.349)"/>
        <circle id="Ellipse_55" data-name="Ellipse 55" class="cls-1" cx="2.62" cy="2.62" r="2.62" transform="translate(12.098 9.404)"/>
      </g>
    </g>
  </g>
</svg>
