<svg xmlns="http://www.w3.org/2000/svg" viewBox="0 0 24 16.724">
  <defs>
    <style>
      .cls-1 {
        fill: #fff;
      }
    </style>
  </defs>
  <g id="signature" transform="translate(0 -36.09)">
    <path id="Path_811" data-name="Path 811" class="cls-1" d="M91.658,41.086l1.814,1.55,1.948,4.827a.706.706,0,0,0,.442.409l9.416,2.974a.706.706,0,0,0,.885-.885l-2.974-9.416a.705.705,0,0,0-.409-.442l-4.812-1.936-1.562-1.828a.706.706,0,0,0-1.035-.041l-3.754,3.754a.706.706,0,0,0,.041,1.035Zm12.291,6.547-4.742-4.742a.706.706,0,0,0-1,1l4.742,4.742-6.347-2L94.9,42.4l2.816-2.816,4.231,1.7Zm-8.12-9.8.755.884-2.546,2.546-.884-.755Z" transform="translate(-82.197)"/>
    <path id="Path_812" data-name="Path 812" class="cls-1" d="M23.294,188.008H.706a.706.706,0,0,0,0,1.411H23.294a.706.706,0,1,0,0-1.411Z" transform="translate(0 -136.605)"/>
  </g>
</svg>
