<svg xmlns="http://www.w3.org/2000/svg" viewBox="0 0 11 21.633">
  <defs>
    <style>
      .cls-1 {
        fill: #fff;
      }
    </style>
  </defs>
  <g id="state" transform="translate(-14.5)">
    <path id="Path_819" data-name="Path 819" class="cls-1" d="M25.5,5.5a5.5,5.5,0,1,0-5.867,5.481V21.267a.367.367,0,0,0,.733,0V10.981A5.5,5.5,0,0,0,25.5,5.5ZM20,10.267A4.767,4.767,0,1,1,24.767,5.5,4.772,4.772,0,0,1,20,10.267Z"/>
    <path id="Path_820" data-name="Path 820" class="cls-1" d="M21.967,7a1.467,1.467,0,1,0,1.467,1.467A1.468,1.468,0,0,0,21.967,7Zm0,2.2a.733.733,0,1,1,.733-.733A.734.734,0,0,1,21.967,9.2Z" transform="translate(-3.8 -4.433)"/>
  </g>
</svg>
