<svg xmlns="http://www.w3.org/2000/svg" viewBox="0 0 17 16.962">
  <defs>
    <style>
      .cls-1 {
        fill: #fff;
      }
    </style>
  </defs>
  <g id="telephone" transform="translate(0 -0.394)">
    <g id="Group_884" data-name="Group 884" transform="translate(0 0.394)">
      <g id="Group_883" data-name="Group 883">
        <path id="Path_781" data-name="Path 781" class="cls-1" d="M16.619,13.809l-2.625-2.626a1.369,1.369,0,0,0-1.93.036L10.74,12.542l-.261-.145A13.162,13.162,0,0,1,7.3,10.1,13.236,13.236,0,0,1,4.992,6.909c-.049-.089-.1-.174-.142-.255l.888-.886.436-.437A1.368,1.368,0,0,0,6.209,3.4L3.584.775a1.367,1.367,0,0,0-1.93.036l-.74.744.02.02a4.279,4.279,0,0,0-.61,1.075A4.459,4.459,0,0,0,.053,3.741c-.347,2.874.967,5.5,4.531,9.065,4.927,4.926,8.9,4.554,9.068,4.536a4.436,4.436,0,0,0,1.094-.275,4.264,4.264,0,0,0,1.072-.607l.016.014.75-.734A1.37,1.37,0,0,0,16.619,13.809Z" transform="translate(0 -0.394)"/>
      </g>
    </g>
  </g>
</svg>
