<svg xmlns="http://www.w3.org/2000/svg" viewBox="0 0 46.908 39">
  <defs>
    <style>
      .cls-1 {
        fill: #fff;
      }
    </style>
  </defs>
  <g id="digital-camera-shape" transform="translate(0 -29.075)">
    <g id="Group_955" data-name="Group 955" transform="translate(0 29.075)">
      <path id="Path_875" data-name="Path 875" class="cls-1" d="M41.974,34.448H34.04l-.8-3.816a1.962,1.962,0,0,0-1.918-1.557H15.588a1.961,1.961,0,0,0-1.918,1.557l-.8,3.816H4.933C2.166,34.448,0,36.21,0,38.463v25.6c0,2.251,2.167,4.015,4.933,4.015H41.974c2.768,0,4.934-1.762,4.934-4.015v-25.6C46.908,36.21,44.741,34.448,41.974,34.448ZM23.453,60.6a9.479,9.479,0,1,1,9.478-9.479A9.489,9.489,0,0,1,23.453,60.6Z" transform="translate(0 -29.075)"/>
      <path id="Path_876" data-name="Path 876" class="cls-1" d="M137.144,150.318a5.557,5.557,0,1,0,5.556,5.557A5.564,5.564,0,0,0,137.144,150.318Z" transform="translate(-113.691 -133.83)"/>
    </g>
  </g>
</svg>
