<svg xmlns="http://www.w3.org/2000/svg" viewBox="0 0 13.976 16.605">
  <defs>
    <style>
      .cls-1 {
        fill: #fff;
      }
    </style>
  </defs>
  <g id="BVN" transform="translate(-33.907)">
    <g id="Group_946" data-name="Group 946" transform="translate(33.908 0)">
      <path id="Path_873" data-name="Path 873" class="cls-1" d="M47.865,4.274c-.02-.437-.02-.854-.02-1.271a.585.585,0,0,0-.6-.6A7.979,7.979,0,0,1,41.312.164a.613.613,0,0,0-.834,0,7.979,7.979,0,0,1-5.937,2.244.585.585,0,0,0-.6.6c0,.417,0,.834-.02,1.271-.079,4.17-.2,9.889,6.771,12.291l.2.04.2-.04C48.044,14.163,47.945,8.464,47.865,4.274Zm-7.446,5.778a.641.641,0,0,1-.417.159h-.02a.559.559,0,0,1-.417-.2L37.718,7.968l.894-.794,1.45,1.608,3.217-3.058.814.874Z" transform="translate(-33.908 0)"/>
    </g>
  </g>
</svg>
