<svg id="question" xmlns="http://www.w3.org/2000/svg" viewBox="0 0 9.68 14.678">
  <defs>
    <style>
      .cls-1 {
        fill: #fff;
      }
    </style>
  </defs>
  <path id="Path_778" data-name="Path 778" class="cls-1" d="M9.981,0c2.539,0,5.038,1.169,5.038,3.966,0,2.579-2.955,3.571-3.59,4.5-.476.693-.317,1.667-1.627,1.667A1.262,1.262,0,0,1,8.533,8.808c0-2.362,3.47-2.9,3.47-4.841,0-1.07-.712-1.705-1.9-1.705-2.539,0-1.547,2.617-3.47,2.617A1.187,1.187,0,0,1,5.34,3.669C5.34,1.724,7.561,0,9.981,0Zm-.1,11.424a1.627,1.627,0,1,1-1.627,1.627A1.634,1.634,0,0,1,9.882,11.424Z" transform="translate(-5.34)"/>
</svg>
