<svg xmlns="http://www.w3.org/2000/svg" viewBox="0 0 15.814 12.426">
  <defs>
    <style>
      .cls-1 {
        fill: #fff;
      }
    </style>
  </defs>
  <g id="envelope" transform="translate(0 -54.82)">
    <g id="Group_886" data-name="Group 886" transform="translate(0 54.82)">
      <path id="Path_784" data-name="Path 784" class="cls-1" d="M1.518,58.65q.3.212,1.809,1.258t2.312,1.61l.375.269q.287.208.477.335t.459.287a2.663,2.663,0,0,0,.507.238,1.4,1.4,0,0,0,.441.079h.018a1.4,1.4,0,0,0,.441-.079,2.665,2.665,0,0,0,.507-.238q.269-.159.459-.287t.477-.335q.287-.208.375-.269l4.13-2.868a4.192,4.192,0,0,0,1.077-1.085,2.331,2.331,0,0,0,.433-1.332A1.424,1.424,0,0,0,14.4,54.82H1.412a1.26,1.26,0,0,0-1.046.459A1.781,1.781,0,0,0,0,56.426a2.061,2.061,0,0,0,.485,1.2A4.38,4.38,0,0,0,1.518,58.65Z" transform="translate(0 -54.82)"/>
      <path id="Path_785" data-name="Path 785" class="cls-1" d="M14.932,185.2q-2.894,1.959-4.395,3.045-.5.371-.816.578a5.037,5.037,0,0,1-.834.424,2.54,2.54,0,0,1-.971.216H7.9a2.54,2.54,0,0,1-.971-.216,5.039,5.039,0,0,1-.834-.424q-.313-.207-.816-.578Q4.086,187.376.891,185.2A4.675,4.675,0,0,1,0,184.437v7.007a1.359,1.359,0,0,0,.415,1,1.36,1.36,0,0,0,1,.415H14.4a1.416,1.416,0,0,0,1.412-1.412v-7.007A4.867,4.867,0,0,1,14.932,185.2Z" transform="translate(0 -180.43)"/>
    </g>
  </g>
</svg>
