<svg xmlns="http://www.w3.org/2000/svg" viewBox="0 0 15.13 13.354">
  <defs>
    <style>
      .cls-1 {
        fill: #fff;
      }
    </style>
  </defs>
  <g id="quote" transform="translate(0.001 -57.197)">
    <path id="Path_786" data-name="Path 786" class="cls-1" d="M561.923,57.2h-4.717a.776.776,0,0,0-.776.776V62.69a.776.776,0,0,0,.776.776h2.258a5.134,5.134,0,0,1-.86,2.967,4.674,4.674,0,0,1-1.944,1.455.775.775,0,0,0-.385,1.041l.559,1.179a.776.776,0,0,0,1.01.379,8.625,8.625,0,0,0,2.6-1.688,6.55,6.55,0,0,0,1.774-2.823,15.29,15.29,0,0,0,.479-4.3V57.973A.776.776,0,0,0,561.923,57.2Z" transform="translate(-547.57)"/>
    <path id="Path_787" data-name="Path 787" class="cls-1" d="M1.644,70.484A8.771,8.771,0,0,0,4.234,68.8a6.516,6.516,0,0,0,1.784-2.812A15.272,15.272,0,0,0,6.5,61.681V57.973a.776.776,0,0,0-.776-.776H1a.776.776,0,0,0-.776.776V62.69A.776.776,0,0,0,1,63.466H3.263a5.134,5.134,0,0,1-.86,2.967A4.674,4.674,0,0,1,.459,67.888a.775.775,0,0,0-.385,1.041l.557,1.176A.778.778,0,0,0,1.644,70.484Z" transform="translate(0 0)"/>
  </g>
</svg>
