<svg id="transfer_1_" data-name="transfer (1)" xmlns="http://www.w3.org/2000/svg" viewBox="0 0 63.322 59.653">
  <defs>
    <style>
      .cls-1 {
        fill: #0f0f0f;
      }

      .cls-2 {
        fill: #0f0e0f;
      }

      .cls-3 {
        fill: #060606;
        font-size: 21px;
        font-family: Lato-Bold, Lato;
        font-weight: 700;
      }

      .cls-4 {
        font-family: SegoeUI-Bold, Segoe UI;
      }
    </style>
  </defs>
  <g id="Group_639" data-name="Group 639" transform="translate(0 0)">
    <path id="Path_705" data-name="Path 705" class="cls-1" d="M49.859,14.2H13.476a6.606,6.606,0,0,0-6.6,6.6V50.919L2.7,46.746A1.581,1.581,0,0,0,.465,48.981l6.886,6.886a1.591,1.591,0,0,0,2.248,0l6.886-6.886a1.581,1.581,0,0,0-2.235-2.235l-4.186,4.186V20.8A3.435,3.435,0,0,1,13.5,17.365h36.37A3.435,3.435,0,0,1,53.309,20.8V25.2a1.589,1.589,0,1,0,3.178,0V20.8A6.67,6.67,0,0,0,49.859,14.2Z" transform="translate(0 -14.2)"/>
    <path id="Path_706" data-name="Path 706" class="cls-2" d="M99.988,150.5,93.1,157.382a1.585,1.585,0,0,0,2.248,2.235l4.186-4.186v30.117a3.435,3.435,0,0,1-3.437,3.437H59.715a3.435,3.435,0,0,1-3.437-3.437v-4.393a1.589,1.589,0,0,0-3.178,0v4.393a6.606,6.606,0,0,0,6.6,6.6h36.37a6.606,6.606,0,0,0,6.6-6.6V155.431l4.186,4.186a1.581,1.581,0,1,0,2.235-2.235L102.21,150.5A1.608,1.608,0,0,0,99.988,150.5Z" transform="translate(-46.239 -132.498)"/>
    <text id="_" data-name=" ₦" class="cls-3" transform="translate(21.163 38.512)"><tspan x="0" y="0"> </tspan><tspan class="cls-4" y="0">₦</tspan></text>
  </g>
</svg>
