<svg xmlns="http://www.w3.org/2000/svg" viewBox="0 0 108.738 104.758">
  <defs>
    <style>
      .cls-1 {
        fill: #e90052;
      }
    </style>
  </defs>
  <g id="upload-up-arrow-symbol" transform="translate(0 -1.951)">
    <g id="Upload" transform="translate(0 1.951)">
      <g id="Group_887" data-name="Group 887">
        <path id="Path_849" data-name="Path 849" class="cls-1" d="M102.411,93.681H6.328a6.516,6.516,0,0,0,0,13.027h96.083a6.516,6.516,0,0,0,0-13.027ZM27.24,46.25l7.686-.239V72.937a6.422,6.422,0,0,0,6.332,6.518H65.7a6.209,6.209,0,0,0,4.478-1.912,6.587,6.587,0,0,0,1.855-4.607V46.01l7.607.239a6.425,6.425,0,0,0,5.889-3.675,6.679,6.679,0,0,0-.853-7.029L59.155,4.288a6.282,6.282,0,0,0-4.745-2.332A6.156,6.156,0,0,0,49.6,4.129L22.347,35.389a6.67,6.67,0,0,0-1.028,7.1A6.329,6.329,0,0,0,27.24,46.25Z" transform="translate(0 -1.951)"/>
      </g>
    </g>
  </g>
</svg>
