<svg xmlns="http://www.w3.org/2000/svg" viewBox="0 0 18.5 14.672">
  <defs>
    <style>
      .cls-1 {
        fill: #fff;
      }
    </style>
  </defs>
  <g id="passport" transform="translate(0 -6)">
    <path id="Path_816" data-name="Path 816" class="cls-1" d="M18.181,6H.319A.319.319,0,0,0,0,6.319V20.353a.319.319,0,0,0,.319.319H18.181a.319.319,0,0,0,.319-.319V6.319A.319.319,0,0,0,18.181,6Zm-.319,14.034H.638V6.638H17.862Z"/>
    <path id="Path_817" data-name="Path 817" class="cls-1" d="M12.207,20.553a1.776,1.776,0,1,0-1.776-1.776A1.778,1.778,0,0,0,12.207,20.553Zm0-2.915a1.138,1.138,0,1,1-1.138,1.139A1.14,1.14,0,0,1,12.207,17.638Z" transform="translate(-7.104 -7.491)"/>
    <path id="Path_818" data-name="Path 818" class="cls-1" d="M6.319,30.337a.318.318,0,0,0,.211-.079l5.2-4.581,3.286,3.286a.319.319,0,0,0,.451-.451l-1.533-1.533,2.928-3.207,3.592,3.293a.319.319,0,1,0,.431-.47L17.06,23.084A.329.329,0,0,0,16.83,23a.32.32,0,0,0-.221.1l-3.124,3.422-1.513-1.513A.319.319,0,0,0,11.536,25L6.108,29.778a.319.319,0,0,0,.211.559Z" transform="translate(-4.086 -11.578)"/>
  </g>
</svg>
