<svg xmlns="http://www.w3.org/2000/svg" viewBox="0 0 18.939 18.802">
  <defs>
    <style>
      .cls-1 {
        fill: #fff;
      }
    </style>
  </defs>
  <g id="process" transform="translate(0 -1.688)">
    <g id="Layer_2_16_" transform="translate(0 1.688)">
      <g id="Group_879" data-name="Group 879" transform="translate(0 0)">
        <path id="Path_761" data-name="Path 761" class="cls-1" d="M253.763,423.178c-.156.039-.315.073-.473.1a.761.761,0,0,0,.277,1.5c.188-.035.378-.076.564-.122a.761.761,0,0,0-.368-1.478Z" transform="translate(-242.38 -405.996)"/>
        <path id="Path_762" data-name="Path 762" class="cls-1" d="M412.681,137.71a.761.761,0,0,0,1.446-.479c-.06-.182-.127-.364-.2-.542a.761.761,0,1,0-1.414.565C412.574,137.4,412.63,137.557,412.681,137.71Z" transform="translate(-395.667 -130.733)"/>
        <path id="Path_763" data-name="Path 763" class="cls-1" d="M321.66,394.038c-.134.089-.273.174-.413.255a.761.761,0,1,0,.761,1.319c.166-.1.331-.2.491-.3a.761.761,0,0,0-.839-1.27Z" transform="translate(-307.803 -377.943)"/>
        <path id="Path_764" data-name="Path 764" class="cls-1" d="M429.157,208.043a.761.761,0,1,0-1.522.06c.006.161.008.324,0,.484a.761.761,0,1,0,1.522.034C429.166,208.429,429.164,208.235,429.157,208.043Z" transform="translate(-410.224 -198.94)"/>
        <path id="Path_765" data-name="Path 765" class="cls-1" d="M378.306,344.221a.761.761,0,0,0-1.066.152c-.1.129-.2.256-.3.379a.762.762,0,0,0,.086,1.073c.018.015.037.03.056.043a.761.761,0,0,0,1.017-.129c.124-.146.246-.3.361-.452A.762.762,0,0,0,378.306,344.221Z" transform="translate(-361.417 -330.129)"/>
        <path id="Path_766" data-name="Path 766" class="cls-1" d="M414.915,279.387a.761.761,0,0,0-.954.5c-.048.153-.1.307-.159.458a.761.761,0,0,0,1.423.542c.068-.179.132-.363.189-.545A.762.762,0,0,0,414.915,279.387Z" transform="translate(-396.907 -268.047)"/>
        <path id="Path_767" data-name="Path 767" class="cls-1" d="M8.061,18.979a7.862,7.862,0,0,1-1.953-.621l-.022-.012c-.146-.069-.292-.142-.433-.219h0a8.122,8.122,0,0,1-.757-.473A7.945,7.945,0,0,1,4.928,4.639l.027-.019a7.959,7.959,0,0,1,8.92-.072l-.595.859c-.165.239-.064.414.226.388l2.584-.231a.426.426,0,0,0,.385-.557l-.694-2.5c-.078-.28-.277-.314-.442-.075l-.6.862a9.4,9.4,0,0,0-6.89-1.465q-.366.063-.721.154h0L7.1,1.992A9.388,9.388,0,0,0,1.894,5.481c-.011.013-.022.026-.033.04-.043.058-.086.118-.128.177-.069.1-.136.2-.2.3-.008.012-.014.024-.021.036a9.387,9.387,0,0,0-1.5,5.537c0,.006,0,.013,0,.02.009.191.024.385.044.575,0,.012,0,.024.006.036.021.192.048.384.081.576a9.4,9.4,0,0,0,2.65,5.1l.01.01,0,0A9.593,9.593,0,0,0,4.017,18.9a9.388,9.388,0,0,0,3.775,1.58.761.761,0,0,0,.269-1.5Z" transform="translate(0 -1.688)"/>
        <path id="Path_768" data-name="Path 768" class="cls-1" d="M206.6,83.2a.616.616,0,0,0-.616.616v6.137l5.613,2.9a.616.616,0,0,0,.566-1.094L207.219,89.2V83.814A.616.616,0,0,0,206.6,83.2Z" transform="translate(-197.601 -79.88)"/>
      </g>
    </g>
  </g>
</svg>
